<?xml version="1.0" encoding="UTF-8" standalone="no"?>
<svg
   height="72"
   width="72"
   version="1.1"
   id="svg918"
   sodipodi:docname="linkedin.svg"
   inkscape:version="1.1.1 (c3084ef, 2021-09-22)"
   xmlns:inkscape="http://www.inkscape.org/namespaces/inkscape"
   xmlns:sodipodi="http://sodipodi.sourceforge.net/DTD/sodipodi-0.dtd"
   xmlns="http://www.w3.org/2000/svg"
   xmlns:svg="http://www.w3.org/2000/svg">
  <defs
     id="defs922" />
  <sodipodi:namedview
     id="namedview920"
     pagecolor="#ffffff"
     bordercolor="#666666"
     borderopacity="1.0"
     inkscape:pageshadow="2"
     inkscape:pageopacity="0.0"
     inkscape:pagecheckerboard="0"
     showgrid="false"
     inkscape:zoom="12.486111"
     inkscape:cx="12.053393"
     inkscape:cy="36.961068"
     inkscape:window-width="1296"
     inkscape:window-height="1081"
     inkscape:window-x="2074"
     inkscape:window-y="166"
     inkscape:window-maximized="0"
     inkscape:current-layer="g916" />
  <g
     fill="none"
     fill-rule="evenodd"
     id="g916"
     transform="matrix(0.80841667,0,0,0.80841667,6.8969999,6.8969999)">
    <path
       id="path912"
       style="fill:#000000;stroke-width:0.808417"
       d="M 13.365234 6.8964844 A 6.4673334 6.4673334 0 0 0 6.8964844 13.365234 L 6.8964844 58.634766 A 6.4673334 6.4673334 0 0 0 13.365234 65.103516 L 58.634766 65.103516 A 6.4673334 6.4673334 0 0 0 65.103516 58.634766 L 65.103516 13.365234 A 6.4673334 6.4673334 0 0 0 58.634766 6.8964844 L 13.365234 6.8964844 z M 20.115234 14.980469 C 22.950352 14.980469 25.246094 17.296208 25.246094 20.152344 C 25.246094 23.007818 22.950253 25.323146 20.115234 25.324219 C 17.280215 25.323146 14.980469 23.007818 14.980469 20.152344 C 14.980469 17.296208 17.279309 14.980469 20.115234 14.980469 z M 46.818359 28.136719 C 52.762647 28.136719 57.019531 31.767625 57.019531 39.275391 L 57.019531 57.019531 L 48.380859 57.019531 L 48.380859 42.306641 C 48.380859 38.272641 46.848687 36.019531 43.65625 36.019531 C 40.183292 36.019531 38.369141 38.364801 38.369141 42.306641 L 38.369141 57.019531 L 30.042969 57.019531 L 30.042969 28.994141 L 38.369141 28.994141 L 38.369141 32.769531 C 38.369141 32.769531 40.870838 28.136719 46.818359 28.136719 z M 15.816406 28.994141 L 24.494141 28.994141 L 24.494141 57.019531 L 15.816406 57.019531 L 15.816406 28.994141 z "
       transform="matrix(1.2369859,0,0,1.2369859,-8.5314914,-8.5314914)" />
  </g>
</svg>
